
<svg xmlns="http://www.w3.org/2000/svg" viewBox="0 0 211.88 106.44"><defs><style>.cls-1{fill:#fff;stroke:#fff;stroke-miterlimit:22.93;}.cls-1,.cls-3{stroke-width:0.22px;}.cls-2,.cls-3{fill:#2b2d77;}.cls-2,.cls-3,.cls-4{fill-rule:evenodd;}.cls-3{stroke:#2e3192;stroke-miterlimit:2.61;}.cls-4{fill:#ffcb05;}</style></defs><title>Asset 1</title><g id="Layer_2" data-name="Layer 2"><g id="Layer_1-2" data-name="Layer 1"><rect class="cls-1" x="0.11" y="0.11" width="211.66" height="105.83" rx="10.58" ry="10.58"/><path class="cls-2" d="M.11,70.61H211.77V92.27a14.21,14.21,0,0,1-14.17,14.17H14.28A14.21,14.21,0,0,1,.11,92.27Z"/><path class="cls-3" d="M48.72,15.85l-.53,1.32L49.44,19,30.53,54l1.24,1.08h11.6l-.6-1.71L46,46.62l8.64,0L56,47.78l.7,7.29L72.26,55,71,53.26,67.86,17.43l-1.44-1.49c.08,0-17.63-.24-17.69-.09ZM60.14,38.16,55.9,40.94,48.48,41l3.62-8,1-.61h1.27l1,.73.58,7.81Z"/><path class="cls-3" d="M84.72,27.39l-6.5,26.43.4,1.18,13.72-.08L91.61,53l3.65-17,.48-1.66,1-.87.87-.71,1.51-.47,1.59-.16H103l1.9.08L106,31.8l1-.95,1-2.21,1-3.08-.4-.71-4.84-.08-1,.47-.87,1.26L101,28.2l-1.25,1.16-1.51.16-1-.16c-.73-.32-.87-.27-.87-1.18L97,25.64l-.53-.86-12,0-.64.82Z"/><path class="cls-3" d="M123.7,16.89l-2,.09-1.94.54-1.36.85-1.16.8-1.12,1.12-.88,1.41-.68,1.48-.42,1.34-4.66,19.42-.26,1.5L109,46.84l.11,1.52.27,1.66.68,1.46,1.08,1.4,1.48,1.07,1.58.7,3.1.49,18-.07,1.78-.56,1.21-1.21L139.57,48h-4.29l-5.83.08-2.83-.16L125.08,47l-.89-1-.4-1.77.24-1.53,3.8-16.11.49-1.13.65-.89.89-.72,1-.56,1.13-.32,1.94.08a46.73,46.73,0,0,0,4.86-.08c-.4-.16,1.78,0,1.78,0l1.3-.32.81-.81,1.13-3.14.32-1.29-.16-.48Z"/><path class="cls-3" d="M145.84,54.59l8.23.33c2.71-1.08,2.94-2.09,4.61-4.13,1.52-.76,2.42-.69,3.29.79-.52,2.08-.95,2.18,1.05,3.34l11.92.07c.49-1.36.08-1.52-.72-2.69l5.07-21c-.11-3,.48-5.6-3.36-6.42l-21.27-.07-.72.39-.92,4,.33.72,10,.13c3.68,1.83,3.06,5.72-1,6.35-6.79.1-15-1.44-17.45,6.49-1.24,3.38-3,9.51.92,11.66Zm11.92-13.76.95-.85,1.62-.6h2.38l.75.2.64.76,0,.9-.85,3.65-1,3.22-1.39.94-1.28.15-1.47,0L157,48.79l-.72-1-.06-1.53"/><path class="cls-4" d="M42.06,84H39.78v5.64c0,.07,0,.16,0,.27a2.34,2.34,0,0,1,0,.36,2,2,0,0,1-.13.4,1.48,1.48,0,0,1-.23.37,2,2,0,0,1-.77.52,3.67,3.67,0,0,1-2.44,0,2.05,2.05,0,0,1-.77-.52,1.48,1.48,0,0,1-.23-.37,2.07,2.07,0,0,1-.13-.4,2.45,2.45,0,0,1,0-.36c0-.11,0-.2,0-.27V84H32.69v5.64q0,.14,0,.41a3.32,3.32,0,0,0,.1.59,3.55,3.55,0,0,0,.25.68,2.67,2.67,0,0,0,.46.66,2.89,2.89,0,0,0,.94.67,5.82,5.82,0,0,0,1.08.36,6.47,6.47,0,0,0,1,.16l.82,0a10.55,10.55,0,0,0,1.08-.05,5.42,5.42,0,0,0,1-.19,5.13,5.13,0,0,0,.91-.36,4.75,4.75,0,0,0,.88-.59l2.47,1.2V91.41l-1.77-.87a3,3,0,0,0,.11-.47,3.28,3.28,0,0,0,0-.45Z"/><path class="cls-4" d="M45.13,93.07h2.28V87.43c0-.07,0-.16,0-.27a2.43,2.43,0,0,1,0-.36,1.93,1.93,0,0,1,.13-.39,1.8,1.8,0,0,1,.23-.38,2.07,2.07,0,0,1,.77-.52,3.67,3.67,0,0,1,2.44,0,2.05,2.05,0,0,1,.77.52,1.8,1.8,0,0,1,.23.38,1.87,1.87,0,0,1,.13.39,2.33,2.33,0,0,1,0,.36c0,.11,0,.2,0,.27v.64h2.28v-.64q0-.14,0-.42a3.37,3.37,0,0,0-.34-1.27,2.79,2.79,0,0,0-.46-.66,4,4,0,0,0-.53-.43,3.72,3.72,0,0,0-.79-.4A6.13,6.13,0,0,0,51.27,84a8.86,8.86,0,0,0-1.48-.11l-.8,0a6.57,6.57,0,0,0-1,.16,5.53,5.53,0,0,0-1.08.36,2.92,2.92,0,0,0-.93.67,2.75,2.75,0,0,0-.46.66,3.41,3.41,0,0,0-.25.67,3.33,3.33,0,0,0-.1.6q0,.27,0,.42Z"/><path class="cls-4" d="M63.36,84v5.64c0,.07,0,.16,0,.27a2.29,2.29,0,0,1,0,.36,2,2,0,0,1-.13.4,1.48,1.48,0,0,1-.23.37,2,2,0,0,1-.77.52,3.67,3.67,0,0,1-2.44,0A2.05,2.05,0,0,1,59,91a1.47,1.47,0,0,1-.23-.37,2.07,2.07,0,0,1-.13-.4,2.44,2.44,0,0,1,0-.36c0-.11,0-.2,0-.27V84H56.26v5.64a4,4,0,0,0,.09.88,4.15,4.15,0,0,0,.21.67,2.36,2.36,0,0,0,.26.48,3.38,3.38,0,0,0,.26.31,3,3,0,0,0,.93.68,5.35,5.35,0,0,0,1.07.37,6,6,0,0,0,1,.15l.81,0,.84,0A6.64,6.64,0,0,0,62.81,93a5.55,5.55,0,0,0,1.08-.36,2.92,2.92,0,0,0,.93-.67,2.77,2.77,0,0,0,.46-.66A3.35,3.35,0,0,0,65.62,90c0-.18,0-.32,0-.42V85.4h2.17V84Z"/><path class="cls-4" d="M78.73,89.54H76.45v.32a2,2,0,0,1-.1.59A1.59,1.59,0,0,1,76,91a1.76,1.76,0,0,1-.94.59,4.4,4.4,0,0,1-1.05.14,4.44,4.44,0,0,1-1-.14A1.76,1.76,0,0,1,72,91a1.48,1.48,0,0,1-.23-.37,2.07,2.07,0,0,1-.13-.4,2.42,2.42,0,0,1,0-.36c0-.11,0-.2,0-.28v-2h7.19V86.23H71.63V84H69.35v5.64c0,.09,0,.23,0,.42a3.3,3.3,0,0,0,.1.6,3.4,3.4,0,0,0,.25.67,2.73,2.73,0,0,0,.46.66,3.13,3.13,0,0,0,.53.44,3.94,3.94,0,0,0,.79.39,6.15,6.15,0,0,0,1.11.29,8.84,8.84,0,0,0,1.48.11l.79,0a6.64,6.64,0,0,0,1-.16A5.55,5.55,0,0,0,77,92.62a2.92,2.92,0,0,0,.93-.67,2.82,2.82,0,0,0,.6-1,3.51,3.51,0,0,0,.22-1.22Z"/><path class="cls-4" d="M91.65,89.12H89.37v.49c0,.07,0,.16,0,.27a2.44,2.44,0,0,1,0,.36,1.92,1.92,0,0,1-.13.4A1.44,1.44,0,0,1,89,91a2,2,0,0,1-.77.52,3.67,3.67,0,0,1-2.44,0A2,2,0,0,1,85,91a1.47,1.47,0,0,1-.23-.37,1.92,1.92,0,0,1-.13-.4,2.4,2.4,0,0,1,0-.36c0-.11,0-.2,0-.27V84H80.11V85.4h2.17v4.21c0,.09,0,.23,0,.42a3.28,3.28,0,0,0,.1.6,3.34,3.34,0,0,0,.25.67,2.74,2.74,0,0,0,.46.66,2.89,2.89,0,0,0,.94.67,5.78,5.78,0,0,0,1.08.36,6.45,6.45,0,0,0,1,.16l.82,0a8.6,8.6,0,0,0,1.45-.11,6.17,6.17,0,0,0,1.1-.29,3.88,3.88,0,0,0,.79-.39,3,3,0,0,0,.53-.44,2.67,2.67,0,0,0,.46-.66,3.51,3.51,0,0,0,.25-.67,3.21,3.21,0,0,0,.1-.59c0-.18,0-.31,0-.4Z"/><path class="cls-4" d="M96,93.07V87.42a6.51,6.51,0,0,1,.81-.17,6.65,6.65,0,0,1,1-.07,4.77,4.77,0,0,1,.64,0,1.82,1.82,0,0,1,.62.2,1.11,1.11,0,0,1,.54.58,2,2,0,0,1,.11.63v1.29h2.28v-1.3q0-.18,0-.42a2.42,2.42,0,0,0-.11-.51,2.39,2.39,0,0,0-.27-.54,2.68,2.68,0,0,0-.47-.53A3.82,3.82,0,0,0,99.92,86a5.78,5.78,0,0,0-2-.27,9.44,9.44,0,0,0-1,.05A8.57,8.57,0,0,0,96,86V84H93.68v9.1Z"/><path class="cls-4" d="M113.06,84h-2.28v5.64c0,.07,0,.16,0,.27a2.34,2.34,0,0,1,0,.36,2,2,0,0,1-.13.4,1.48,1.48,0,0,1-.23.37,2,2,0,0,1-.77.52,3.67,3.67,0,0,1-2.44,0,2.05,2.05,0,0,1-.77-.52,1.48,1.48,0,0,1-.23-.37,2.07,2.07,0,0,1-.13-.4,2.48,2.48,0,0,1,0-.36c0-.11,0-.2,0-.27V84h-2.28v5.64q0,.14,0,.41a3.33,3.33,0,0,0,.1.59,3.55,3.55,0,0,0,.25.68,2.67,2.67,0,0,0,.46.66,2.9,2.9,0,0,0,.94.67,5.82,5.82,0,0,0,1.08.36,6.47,6.47,0,0,0,1,.16l.82,0a10.55,10.55,0,0,0,1.08-.05,5.41,5.41,0,0,0,1-.19,5.13,5.13,0,0,0,.91-.36,4.74,4.74,0,0,0,.88-.59l2.47,1.2V91.41l-1.77-.87a2.93,2.93,0,0,0,.11-.47,3.26,3.26,0,0,0,0-.45Z"/><path class="cls-4" d="M126.87,89.12h-2.28v.49c0,.07,0,.16,0,.27a2.4,2.4,0,0,1,0,.36,1.91,1.91,0,0,1-.13.4,1.44,1.44,0,0,1-.23.37,2,2,0,0,1-.77.52,3.67,3.67,0,0,1-2.44,0,2,2,0,0,1-.77-.52,1.48,1.48,0,0,1-.23-.37,1.92,1.92,0,0,1-.13-.4,2.4,2.4,0,0,1,0-.36c0-.11,0-.2,0-.27V84h-4.45V85.4h2.17v4.21c0,.09,0,.23,0,.42a3.31,3.31,0,0,0,.1.6,3.35,3.35,0,0,0,.25.67,2.74,2.74,0,0,0,.46.66,2.89,2.89,0,0,0,.94.67,5.79,5.79,0,0,0,1.08.36,6.45,6.45,0,0,0,1,.16l.82,0a8.59,8.59,0,0,0,1.45-.11,6.16,6.16,0,0,0,1.1-.29,3.88,3.88,0,0,0,.79-.39,3,3,0,0,0,.53-.44,2.67,2.67,0,0,0,.46-.66,3.49,3.49,0,0,0,.25-.67,3.18,3.18,0,0,0,.1-.59c0-.18,0-.31,0-.4Z"/><path class="cls-4" d="M136,93.07V92h6.6V90.6H136V89.26a3,3,0,0,0,1.12.49,6.27,6.27,0,0,0,1.17.11,6.38,6.38,0,0,0,1.4-.14,3.77,3.77,0,0,0,1.25-.55,2.84,2.84,0,0,0,.92-1,2.7,2.7,0,0,0,.3-1.29,2.89,2.89,0,0,0-.1-.81,2.65,2.65,0,0,0-.27-.64,2.52,2.52,0,0,0-.39-.49,3,3,0,0,0-1.24-.76,5.77,5.77,0,0,0-.84-.21,6.73,6.73,0,0,0-.77-.09l-.6,0a8,8,0,0,0-1.37.1,5.32,5.32,0,0,0-1,.28,3.24,3.24,0,0,0-.75.4,3.08,3.08,0,0,0-.51.47,2.06,2.06,0,0,0-.5,1,5.6,5.6,0,0,0-.08.94v3.59H132v1.3h1.77v1.14Zm0-6.28a1.71,1.71,0,0,1,.1-.61,1.2,1.2,0,0,1,.44-.52,1.78,1.78,0,0,1,.64-.3,3.33,3.33,0,0,1,.74-.08,3.5,3.5,0,0,1,.72.07,1.54,1.54,0,0,1,.64.29,1.17,1.17,0,0,1,.48.62,2.47,2.47,0,0,1,.09.63,2,2,0,0,1-.12.69,1.15,1.15,0,0,1-.56.58,1.8,1.8,0,0,1-.6.2,4,4,0,0,1-.57,0,3.93,3.93,0,0,1-.79-.08,1.64,1.64,0,0,1-.71-.34,1.21,1.21,0,0,1-.41-.6A2.35,2.35,0,0,1,136,86.79Z"/><path class="cls-4" d="M154,84h-2.28v5.64c0,.07,0,.16,0,.27a2.34,2.34,0,0,1,0,.36,2,2,0,0,1-.13.4,1.48,1.48,0,0,1-.23.37,2,2,0,0,1-.77.52,3.67,3.67,0,0,1-2.44,0,2.06,2.06,0,0,1-.77-.52,1.48,1.48,0,0,1-.23-.37,2.09,2.09,0,0,1-.13-.4,2.48,2.48,0,0,1,0-.36c0-.11,0-.2,0-.27V84h-2.28v5.64q0,.14,0,.41a3.3,3.3,0,0,0,.1.59,3.54,3.54,0,0,0,.25.68,2.68,2.68,0,0,0,.46.66,2.9,2.9,0,0,0,.94.67,5.82,5.82,0,0,0,1.08.36,6.47,6.47,0,0,0,1,.16l.82,0a10.55,10.55,0,0,0,1.08-.05,5.41,5.41,0,0,0,1-.19,5.12,5.12,0,0,0,.91-.36,4.74,4.74,0,0,0,.88-.59l2.47,1.2V91.41l-1.77-.87a2.93,2.93,0,0,0,.11-.47,3.26,3.26,0,0,0,0-.45Z"/><path class="cls-4" d="M157.09,93.07h2.28V87.43c0-.07,0-.16,0-.27a2.47,2.47,0,0,1,0-.36,2,2,0,0,1,.13-.39,1.79,1.79,0,0,1,.23-.38,2.07,2.07,0,0,1,.77-.52,3.67,3.67,0,0,1,2.44,0,2.05,2.05,0,0,1,.77.52,1.8,1.8,0,0,1,.23.38,1.88,1.88,0,0,1,.13.39,2.33,2.33,0,0,1,0,.36c0,.11,0,.2,0,.27v.64h2.28v-.64q0-.14,0-.42a3.35,3.35,0,0,0-.34-1.27,2.78,2.78,0,0,0-.46-.66,4,4,0,0,0-.53-.43,3.71,3.71,0,0,0-.79-.4,6.13,6.13,0,0,0-1.11-.29,8.86,8.86,0,0,0-1.48-.11l-.8,0a6.57,6.57,0,0,0-1,.16,5.53,5.53,0,0,0-1.08.36,2.92,2.92,0,0,0-.93.67,2.75,2.75,0,0,0-.46.66,3.4,3.4,0,0,0-.25.67,3.32,3.32,0,0,0-.1.6q0,.27,0,.42Z"/><path class="cls-4" d="M167.72,88.22H170v-.79c0-.08,0-.17,0-.28a2.31,2.31,0,0,1,0-.36,1.86,1.86,0,0,1,.13-.39,1.79,1.79,0,0,1,.23-.38,1.76,1.76,0,0,1,.95-.59,4.07,4.07,0,0,1,2.09,0,1.76,1.76,0,0,1,.95.59,1.8,1.8,0,0,1,.23.38,1.93,1.93,0,0,1,.13.39,2.43,2.43,0,0,1,0,.36c0,.11,0,.2,0,.28v5.64h2.28V90.54h2.09V89.11H177.1V87.43q0-.14,0-.42a3.23,3.23,0,0,0-.1-.6,3.41,3.41,0,0,0-.25-.67,2.75,2.75,0,0,0-.46-.66,4,4,0,0,0-.53-.43,3.66,3.66,0,0,0-.79-.4,6.13,6.13,0,0,0-1.11-.29,8.84,8.84,0,0,0-1.48-.11l-.8,0a6.58,6.58,0,0,0-1,.16,5.53,5.53,0,0,0-1.08.36,2.91,2.91,0,0,0-.93.67,2.75,2.75,0,0,0-.46.66,3.36,3.36,0,0,0-.34,1.27q0,.27,0,.42Z"/></g></g></svg>