<svg xmlns="http://www.w3.org/2000/svg" viewBox="0 0 82 82"><defs><style>.cls-1{isolation:isolate;}.cls-2{fill:none;stroke:#9D9D9D;stroke-width:4px;}</style></defs><title>Asset 1</title><g id="Layer_2" data-name="Layer 2"><g id="Layer_1-2" data-name="Layer 1"><g class="cls-1"><path class="cls-2" d="M2,23V12A10,10,0,0,1,12,2H23A10,10,0,0,1,33,12V23A10,10,0,0,1,23,33H12A10,10,0,0,1,2,23Z"/><path class="cls-2" d="M2,70V59A10,10,0,0,1,12,49H23A10,10,0,0,1,33,59V70A10,10,0,0,1,23,80H12A10,10,0,0,1,2,70Z"/><path class="cls-2" d="M49,23V12A10,10,0,0,1,59,2H70A10,10,0,0,1,80,12V23A10,10,0,0,1,70,33H59A10,10,0,0,1,49,23Z"/><path class="cls-2" d="M49,70V59A10,10,0,0,1,59,49H70A10,10,0,0,1,80,59V70A10,10,0,0,1,70,80H59A10,10,0,0,1,49,70Z"/></g></g></g></svg>