<svg id="Layer_2" data-name="Layer 2" xmlns="http://www.w3.org/2000/svg" xmlns:xlink="http://www.w3.org/1999/xlink" width="211.88" height="106.05" viewBox="0 0 211.88 106.05">
  <defs>
    <linearGradient id="linear-gradient" y1="0.5" x2="1" y2="0.5" gradientUnits="objectBoundingBox">
      <stop offset="0" stop-color="#f1692a"/>
      <stop offset="1" stop-color="#f7941d"/>
    </linearGradient>
    <clipPath id="clip-path">
      <path id="Path_2" data-name="Path 2" d="M195.024,126.886a1.567,1.567,0,0,1-2.145.572l-1.85-1.066a12.555,12.555,0,0,0-18.8,10.866V139.4a1.573,1.573,0,0,1-3.14,0v-2.139a15.7,15.7,0,0,1,23.543-13.589l1.85,1.066a1.58,1.58,0,0,1,.572,2.145m-3.166,25.791a1.573,1.573,0,0,0-2.145-.572l-1.856,1.072a6.281,6.281,0,0,1-9.415-5.439V137.258a6.281,6.281,0,0,1,9.421-5.439l9.074,5.24a6.274,6.274,0,0,1,0,10.873L195.121,149a1.568,1.568,0,1,0,1.567,2.717l1.85-1.066a9.415,9.415,0,0,0,0-16.312l-9.074-5.24a9.415,9.415,0,0,0-14.129,8.156v10.481a9.415,9.415,0,0,0,14.129,8.156l1.85-1.072h0a1.573,1.573,0,0,0,.578-2.151Zm.713,8.651a15.7,15.7,0,0,1-23.543-13.589v-2.126a1.573,1.573,0,0,1,3.14,0v2.139a12.555,12.555,0,0,0,18.829,10.873l9.081-5.24a12.253,12.253,0,0,0,6.274-10.873h0a12.266,12.266,0,0,0-6.274-10.873l-1.85-1.066a1.573,1.573,0,1,1,1.567-2.723h0l1.85,1.072a15.689,15.689,0,0,1,0,27.178ZM181.615,139.39a1.573,1.573,0,0,0,3.14,0h0V137.9a.372.372,0,0,1,.186-.328.366.366,0,0,1,.379,0l3.975,2.293,3.969,2.293a.372.372,0,0,1,0,.642l-3.969,2.293-3.975,2.293a.379.379,0,0,1-.565-.328v-1.451a1.573,1.573,0,0,0-3.14,0v2.139a3.14,3.14,0,0,0,4.707,2.717l9.081-5.24a3.14,3.14,0,0,0,0-5.433l-9.081-5.24a3.14,3.14,0,0,0-4.707,2.717Z" transform="translate(-169.06 -121.566)" fill="url(#linear-gradient)"/>
    </clipPath>
    <linearGradient id="linear-gradient-3" x1="0" y1="0.5" x2="1" y2="0.5" xlink:href="#linear-gradient"/>
  </defs>
  <g id="Layer_1" data-name="Layer 1">
    <rect id="Rectangle_1" data-name="Rectangle 1" width="211.66" height="105.83" rx="10.58" transform="translate(0.11 0.11)" fill="#fff" stroke="#fff" stroke-miterlimit="22.93" stroke-width="0.22"/>
    <path id="Path_1" data-name="Path 1" d="M195.024,126.886a1.567,1.567,0,0,1-2.145.572l-1.85-1.066a12.555,12.555,0,0,0-18.8,10.866V139.4a1.573,1.573,0,0,1-3.14,0v-2.139a15.7,15.7,0,0,1,23.543-13.589l1.85,1.066a1.58,1.58,0,0,1,.572,2.145m-3.166,25.791a1.573,1.573,0,0,0-2.145-.572l-1.856,1.072a6.281,6.281,0,0,1-9.415-5.439V137.258a6.281,6.281,0,0,1,9.421-5.439l9.074,5.24a6.274,6.274,0,0,1,0,10.873L195.121,149a1.568,1.568,0,1,0,1.567,2.717l1.85-1.066a9.415,9.415,0,0,0,0-16.312l-9.074-5.24a9.415,9.415,0,0,0-14.129,8.156v10.481a9.415,9.415,0,0,0,14.129,8.156l1.85-1.072h0a1.573,1.573,0,0,0,.578-2.151Zm.713,8.651a15.7,15.7,0,0,1-23.543-13.589v-2.126a1.573,1.573,0,0,1,3.14,0v2.139a12.555,12.555,0,0,0,18.829,10.873l9.081-5.24a12.253,12.253,0,0,0,6.274-10.873h0a12.266,12.266,0,0,0-6.274-10.873l-1.85-1.066a1.573,1.573,0,1,1,1.567-2.723h0l1.85,1.072a15.689,15.689,0,0,1,0,27.178ZM181.615,139.39a1.573,1.573,0,0,0,3.14,0h0V137.9a.372.372,0,0,1,.186-.328.366.366,0,0,1,.379,0l3.975,2.293,3.969,2.293a.372.372,0,0,1,0,.642l-3.969,2.293-3.975,2.293a.379.379,0,0,1-.565-.328v-1.451a1.573,1.573,0,0,0-3.14,0v2.139a3.14,3.14,0,0,0,4.707,2.717l9.081-5.24a3.14,3.14,0,0,0,0-5.433l-9.081-5.24a3.14,3.14,0,0,0-4.707,2.717Z" transform="translate(-136.312 -89.47)" fill-rule="evenodd" fill="url(#linear-gradient)"/>
    <g id="Group_1" data-name="Group 1" transform="translate(32.748 32.096)" clip-path="url(#clip-path)">
      <rect id="Rectangle_2" data-name="Rectangle 2" width="40.465" height="43.426" transform="translate(0.006 -0.775)" fill="url(#linear-gradient-3)"/>
    </g>
    <path id="Path_3" data-name="Path 3" d="M248.927,135.25A1.927,1.927,0,1,1,247,137.177a1.927,1.927,0,0,1,1.927-1.927m-1.394,6.544h2.794v17.34h-2.794Z" transform="translate(-164.199 -94.366)" fill="#333" fill-rule="evenodd"/>
    <path id="Path_4" data-name="Path 4" d="M302.294,144.76a9.055,9.055,0,0,0-6.3,2.569v-2.1H293.2v17.34h2.794v-8.715a6.3,6.3,0,0,1,6.3-6.3Z" transform="translate(-180.729 -97.769)" fill="#333" fill-rule="evenodd"/>
    <path id="Path_5" data-name="Path 5" d="M347.44,145.194h-2.8v17.34h2.8v-8.683a6.3,6.3,0,1,1,12.6,0v8.657h2.813v-8.657a6.306,6.306,0,0,1,12.607,0v8.657h2.806v-8.657a9.094,9.094,0,0,0-16.794-4.842,9.094,9.094,0,0,0-14-1.715Z" transform="translate(-199.134 -97.766)" fill="#333" fill-rule="evenodd"/>
    <path id="Path_6" data-name="Path 6" d="M273.6,135.25v8.644a9.1,9.1,0,1,0,0,13.12v2.094h2.8V135.25Zm-6.3,21.514a6.313,6.313,0,1,1,6.313-6.313A6.313,6.313,0,0,1,267.3,156.764Z" transform="translate(-168.202 -94.366)" fill="#333" fill-rule="evenodd"/>
    <path id="Path_7" data-name="Path 7" d="M325.066,145.195v2.1a9.1,9.1,0,1,0,0,13.12v2.094h2.794v-17.34Zm0,8.657a6.306,6.306,0,1,1,0-.642Z" transform="translate(-186.618 -97.767)" fill="#333" fill-rule="evenodd"/>
  </g>
</svg>