<svg xmlns="http://www.w3.org/2000/svg" viewBox="0 0 18 15"><defs><style>.cls-1{fill:#9D9D9D;}.cls-2{fill:none;stroke:#9D9D9D;stroke-linecap:round;stroke-linejoin:round;stroke-width:1.5px;}</style></defs><title>Asset 6</title><g id="Layer_2" data-name="Layer 2"><g id="Layer_1-2" data-name="Layer 1"><path class="cls-1" d="M3,0H15a3,3,0,0,1,3,3v9a3,3,0,0,1-3,3H3a3,3,0,0,1-3-3V3A3,3,0,0,1,3,0ZM3,1.5A1.5,1.5,0,0,0,1.5,3v9A1.5,1.5,0,0,0,3,13.5H15A1.5,1.5,0,0,0,16.5,12V3A1.5,1.5,0,0,0,15,1.5H3"/><polyline class="cls-2" points="16.5 3.19 9 9.12 1.5 3.19"/></g></g></svg>