
<svg xmlns="http://www.w3.org/2000/svg" viewBox="0 0 211.88 106.05"><defs><style>.cls-1,.cls-4{fill:#fff;}.cls-1,.cls-5{stroke:#fff;}.cls-1{stroke-miterlimit:22.93;stroke-width:0.22px;}.cls-2{fill:#fcb331;}.cls-2,.cls-3,.cls-4,.cls-5{fill-rule:evenodd;}.cls-3{fill:#ed1b2e;}.cls-5{fill:none;stroke-miterlimit:2.61;stroke-width:0.15px;}</style></defs><title>Asset 3</title><g id="Layer_2" data-name="Layer 2"><g id="Layer_1-2" data-name="Layer 1"><rect class="cls-1" x="0.11" y="0.11" width="211.66" height="105.83" rx="10.58" ry="10.58"/><polygon class="cls-2" points="131.72 91.57 133.71 91.52 135.67 91.37 137.6 91.13 139.51 90.79 141.37 90.36 143.2 89.84 145 89.23 146.75 88.54 148.47 87.76 150.13 86.91 151.74 85.98 153.32 84.98 154.82 83.9 156.28 82.75 157.69 81.54 159.03 80.26 160.31 78.92 161.52 77.51 162.66 76.06 163.75 74.55 164.75 72.97 165.68 71.36 166.53 69.7 167.31 67.98 168 66.23 168.61 64.43 169.13 62.6 169.56 60.74 169.9 58.83 170.14 56.9 170.28 54.94 170.34 52.95 170.28 50.98 170.14 49.02 169.9 47.1 169.56 45.22 169.13 43.36 168.61 41.54 168 39.74 167.31 38 166.53 36.3 165.68 34.63 164.75 33.03 163.75 31.46 162.66 29.95 161.52 28.51 160.31 27.1 159.03 25.77 157.69 24.49 156.28 23.28 154.82 22.14 153.32 21.06 151.74 20.06 150.13 19.13 148.47 18.29 146.75 17.51 145 16.82 143.2 16.21 141.37 15.69 139.51 15.26 137.6 14.92 135.67 14.67 133.71 14.53 131.72 14.48 129.74 14.53 127.78 14.67 125.86 14.92 123.96 15.26 122.1 15.69 120.27 16.21 118.48 16.82 116.73 17.51 115.03 18.29 113.38 19.13 111.76 20.06 110.2 21.06 108.69 22.14 107.24 23.28 105.85 24.49 104.51 25.77 103.23 27.1 102.02 28.51 100.88 29.95 99.81 31.46 98.81 33.03 97.89 34.63 97.03 36.3 96.27 38 95.58 39.74 94.98 41.54 94.46 43.36 94.03 45.22 93.69 47.1 93.44 49.02 93.3 50.98 93.25 52.95 93.3 54.94 93.44 56.9 93.69 58.83 94.03 60.74 94.46 62.6 94.98 64.43 95.58 66.23 96.27 67.98 97.03 69.7 97.89 71.36 98.81 72.97 99.81 74.55 100.88 76.06 102.02 77.51 103.23 78.92 104.51 80.26 105.85 81.54 107.24 82.75 108.69 83.9 110.2 84.98 111.76 85.98 113.38 86.91 115.03 87.76 116.73 88.54 118.48 89.23 120.27 89.84 122.1 90.36 123.96 90.79 125.86 91.13 127.78 91.37 129.74 91.52 131.72 91.57 131.72 91.57"/><polygon class="cls-3" points="80.16 91.57 82.13 91.52 84.09 91.37 86.02 91.13 87.92 90.79 89.78 90.36 91.61 89.84 93.39 89.23 95.15 88.54 96.85 87.76 98.5 86.91 100.11 85.98 101.67 84.98 103.18 83.9 104.64 82.75 106.03 81.54 107.37 80.26 108.64 78.92 109.85 77.51 111 76.06 112.06 74.55 113.06 72.97 113.99 71.36 114.84 69.7 115.61 67.98 116.3 66.23 116.9 64.43 117.42 62.6 117.85 60.74 118.19 58.83 118.43 56.9 118.58 54.94 118.63 52.95 118.58 50.98 118.43 49.02 118.19 47.1 117.85 45.22 117.42 43.36 116.9 41.54 116.3 39.74 115.61 38 114.84 36.3 113.99 34.63 113.06 33.03 112.06 31.46 111 29.95 109.85 28.51 108.64 27.1 107.37 25.77 106.03 24.49 104.64 23.28 103.18 22.14 101.67 21.06 100.11 20.06 98.5 19.13 96.85 18.29 95.15 17.51 93.39 16.82 91.61 16.21 89.78 15.69 87.92 15.26 86.02 14.92 84.09 14.67 82.13 14.53 80.16 14.48 78.17 14.53 76.2 14.67 74.28 14.92 72.37 15.26 70.51 15.69 68.67 16.21 66.88 16.82 65.13 17.51 63.41 18.29 61.74 19.13 60.13 20.06 58.56 21.06 57.05 22.14 55.59 23.28 54.19 24.49 52.85 25.77 51.56 27.1 50.35 28.51 49.21 29.95 48.13 31.46 47.13 33.03 46.19 34.63 45.35 36.3 44.57 38 43.88 39.74 43.27 41.54 42.75 43.36 42.32 45.22 41.98 47.1 41.73 49.02 41.59 50.98 41.54 52.95 41.59 54.94 41.73 56.9 41.98 58.83 42.32 60.74 42.75 62.6 43.27 64.43 43.88 66.23 44.57 67.98 45.35 69.7 46.19 71.36 47.13 72.97 48.13 74.55 49.21 76.06 50.35 77.51 51.56 78.92 52.85 80.26 54.19 81.54 55.59 82.75 57.05 83.9 58.56 84.98 60.13 85.98 61.74 86.91 63.41 87.76 65.13 88.54 66.88 89.23 68.67 89.84 70.51 90.36 72.37 90.79 74.28 91.13 76.2 91.37 78.17 91.52 80.16 91.57 80.16 91.57"/><polygon class="cls-2" points="101.43 29.26 121.9 29.26 121.9 27.17 103.19 27.17 101.43 29.26 101.43 29.26"/><polygon class="cls-2" points="98.36 33.92 121.9 33.92 121.9 31.82 99.59 31.82 98.36 33.92 98.36 33.92"/><polygon class="cls-2" points="96.07 38.56 121.9 38.56 121.9 36.47 96.98 36.47 96.07 38.56 96.07 38.56"/><polygon class="cls-2" points="94.5 43.21 121.9 43.21 121.9 41.12 95.15 41.12 94.5 43.21 94.5 43.21"/><polygon class="cls-2" points="95.41 65.71 121.97 65.71 121.97 63.61 94.76 63.61 95.41 65.71 95.41 65.71"/><polygon class="cls-2" points="97.37 70.36 121.97 70.36 121.97 68.27 96.39 68.27 97.37 70.36 97.37 70.36"/><polygon class="cls-2" points="100.13 75 121.97 75 121.97 72.91 98.81 72.91 100.13 75 100.13 75"/><polygon class="cls-2" points="103.92 79.66 121.97 79.66 121.97 77.55 102.09 77.55 103.92 79.66 103.92 79.66"/><polygon class="cls-2" points="93.57 47.85 121.9 47.85 121.9 45.76 93.98 45.76 93.57 47.85 93.57 47.85"/><polygon class="cls-2" points="110.84 61.06 121.64 61.06 121.64 58.97 111.23 58.97 110.84 61.06 110.84 61.06"/><polygon class="cls-2" points="111.7 56.42 121.64 56.42 121.64 54.32 112.09 54.32 111.7 56.42 111.7 56.42"/><polygon class="cls-2" points="92.86 54.32 95.67 54.32 95.67 56.42 92.99 56.42 92.86 54.32 92.86 54.32"/><polygon class="cls-4" points="87.62 51.78 87.44 51.77 87.25 51.74 87.08 51.72 86.92 51.69 86.76 51.66 86.59 51.64 86.42 51.61 86.24 51.59 86.06 51.56 85.85 51.55 85.62 51.53 85.37 51.52 85.1 51.52 84.8 51.53 84.46 51.56 84.08 51.59 83.82 51.63 83.58 51.66 83.35 51.74 83.16 51.82 82.98 51.91 82.81 52.02 82.68 52.15 82.56 52.26 82.48 52.41 82.42 52.55 82.39 52.7 82.39 52.86 82.43 53.03 82.48 53.2 82.59 53.37 82.72 53.54 82.98 53.78 83.29 53.98 83.65 54.15 84.04 54.29 84.46 54.42 84.89 54.56 85.32 54.72 85.73 54.89 86.12 55.11 86.49 55.38 86.81 55.71 87.08 56.11 87.29 56.6 87.42 57.19 87.47 57.89 87.42 58.71 87.33 59.32 87.18 59.86 86.97 60.35 86.71 60.78 86.41 61.16 86.07 61.48 85.71 61.77 85.3 62.01 84.89 62.21 84.46 62.38 84.02 62.51 83.56 62.61 83.12 62.69 82.69 62.73 82.26 62.76 81.86 62.77 81.3 62.77 80.78 62.76 80.32 62.76 79.89 62.74 79.5 62.73 79.15 62.7 78.84 62.68 78.54 62.64 78.27 62.61 78.02 62.56 77.78 62.52 77.56 62.46 77.33 62.4 77.13 62.33 76.92 62.25 76.7 62.17 77.28 59.3 77.4 59.32 77.54 59.36 77.72 59.41 77.94 59.47 78.18 59.52 78.44 59.57 78.72 59.63 79.04 59.69 79.36 59.74 79.7 59.79 80.05 59.83 80.42 59.87 80.79 59.88 81.17 59.9 81.55 59.9 81.92 59.88 82.3 59.8 82.6 59.7 82.83 59.56 83.02 59.38 83.15 59.19 83.25 58.98 83.31 58.78 83.37 58.58 83.39 58.2 83.28 57.88 83.06 57.62 82.73 57.4 82.34 57.2 81.88 57.01 81.38 56.83 80.87 56.62 80.35 56.38 79.86 56.11 79.4 55.77 78.98 55.37 78.66 54.88 78.43 54.29 78.31 53.59 78.32 52.76 78.39 52.25 78.48 51.77 78.61 51.33 78.76 50.91 78.97 50.52 79.21 50.18 79.48 49.86 79.8 49.57 80.18 49.32 80.6 49.12 81.06 48.92 81.59 48.78 82.17 48.66 82.81 48.57 83.51 48.52 84.28 48.51 84.76 48.51 85.2 48.52 85.6 48.53 85.97 48.54 86.29 48.57 86.59 48.6 86.85 48.62 87.08 48.65 87.31 48.67 87.49 48.71 87.66 48.74 87.81 48.77 87.94 48.79 88.06 48.8 88.18 48.83 88.28 48.84 87.62 51.78 87.62 51.78"/><polygon class="cls-5" points="87.62 51.78 87.62 51.78 87.44 51.77 87.25 51.74 87.08 51.72 86.92 51.69 86.76 51.66 86.59 51.64 86.42 51.61 86.24 51.59 86.06 51.56 85.85 51.55 85.62 51.53 85.37 51.52 85.1 51.52 84.8 51.53 84.46 51.56 84.08 51.59 84.08 51.59 83.82 51.63 83.58 51.66 83.35 51.74 83.16 51.82 82.98 51.91 82.81 52.02 82.68 52.15 82.56 52.26 82.48 52.41 82.42 52.55 82.39 52.7 82.39 52.86 82.43 53.03 82.48 53.2 82.59 53.37 82.72 53.54 82.72 53.54 82.98 53.78 83.29 53.98 83.65 54.15 84.04 54.29 84.46 54.42 84.89 54.56 85.32 54.72 85.73 54.89 86.12 55.11 86.49 55.38 86.81 55.71 87.08 56.11 87.29 56.6 87.42 57.19 87.47 57.89 87.42 58.71 87.42 58.71 87.33 59.32 87.18 59.86 86.97 60.35 86.71 60.78 86.41 61.16 86.07 61.48 85.71 61.77 85.3 62.01 84.89 62.21 84.46 62.38 84.02 62.51 83.56 62.61 83.12 62.69 82.69 62.73 82.26 62.76 81.86 62.77 81.3 62.77 80.78 62.76 80.32 62.76 79.89 62.74 79.5 62.73 79.15 62.7 78.84 62.68 78.54 62.64 78.27 62.61 78.02 62.56 77.78 62.52 77.56 62.46 77.33 62.4 77.13 62.33 76.92 62.25 76.7 62.17 77.28 59.3 77.28 59.3 77.4 59.32 77.54 59.36 77.72 59.41 77.94 59.47 78.18 59.52 78.44 59.57 78.72 59.63 79.04 59.69 79.36 59.74 79.7 59.79 80.05 59.83 80.42 59.87 80.79 59.88 81.17 59.9 81.55 59.9 81.92 59.88 81.92 59.88 82.3 59.8 82.6 59.7 82.83 59.56 83.02 59.38 83.15 59.19 83.25 58.98 83.31 58.78 83.37 58.58 83.37 58.58 83.39 58.2 83.28 57.88 83.06 57.62 82.73 57.4 82.34 57.2 81.88 57.01 81.38 56.83 80.87 56.62 80.35 56.38 79.86 56.11 79.4 55.77 78.98 55.37 78.66 54.88 78.43 54.29 78.31 53.59 78.32 52.76 78.32 52.76 78.39 52.25 78.48 51.77 78.61 51.33 78.76 50.91 78.97 50.52 79.21 50.18 79.48 49.86 79.8 49.57 80.18 49.32 80.6 49.12 81.06 48.92 81.59 48.78 82.17 48.66 82.81 48.57 83.51 48.52 84.28 48.51 84.76 48.51 85.2 48.52 85.6 48.53 85.97 48.54 86.29 48.57 86.59 48.6 86.85 48.62 87.08 48.65 87.31 48.67 87.49 48.71 87.66 48.74 87.81 48.77 87.94 48.79 88.06 48.8 88.18 48.83 88.28 48.84 87.62 51.78"/><polygon class="cls-4" points="90.7 45.63 94.3 45.63 93.77 48.78 95.94 48.78 95.47 51.72 93.18 51.65 91.94 58.91 91.92 59.17 91.99 59.39 92.12 59.56 92.29 59.7 92.52 59.79 92.78 59.87 93.07 59.92 93.38 59.95 93.66 59.93 93.92 59.91 94.16 59.87 94.37 59.82 94.53 59.77 94.65 59.73 94.73 59.7 94.76 59.69 94.3 62.1 94.21 62.17 94.12 62.22 94.03 62.27 93.94 62.33 93.85 62.37 93.74 62.4 93.63 62.44 93.51 62.48 93.38 62.52 93.25 62.55 93.09 62.57 92.94 62.6 92.77 62.63 92.57 62.65 92.36 62.68 92.14 62.7 91.16 62.7 90.64 62.66 90.18 62.61 89.76 62.53 89.41 62.44 89.11 62.33 88.87 62.2 88.64 62.04 88.48 61.87 88.35 61.69 88.26 61.47 88.19 61.25 88.15 61 88.14 60.73 88.14 60.44 88.18 60.14 88.22 59.82 90.7 45.63 90.7 45.63"/><polygon class="cls-5" points="90.7 45.63 94.3 45.63 93.77 48.78 95.94 48.78 95.47 51.72 93.18 51.65 91.94 58.91 91.94 58.91 91.92 59.17 91.99 59.39 92.12 59.56 92.29 59.7 92.52 59.79 92.78 59.87 93.07 59.92 93.38 59.95 93.38 59.95 93.66 59.93 93.92 59.91 94.16 59.87 94.37 59.82 94.53 59.77 94.65 59.73 94.73 59.7 94.76 59.69 94.3 62.1 94.3 62.1 94.21 62.17 94.12 62.22 94.03 62.27 93.94 62.33 93.85 62.37 93.74 62.4 93.63 62.44 93.51 62.48 93.38 62.52 93.25 62.55 93.09 62.57 92.94 62.6 92.77 62.63 92.57 62.65 92.36 62.68 92.14 62.7 91.16 62.7 91.16 62.7 90.64 62.66 90.18 62.61 89.76 62.53 89.41 62.44 89.11 62.33 88.87 62.2 88.64 62.04 88.48 61.87 88.35 61.69 88.26 61.47 88.19 61.25 88.15 61 88.14 60.73 88.14 60.44 88.18 60.14 88.22 59.82 90.7 45.63"/><polygon class="cls-4" points="98.81 56.62 98.77 56.84 98.76 57.07 98.79 57.32 98.84 57.57 98.93 57.81 99.03 58.05 99.18 58.3 99.33 58.52 99.52 58.74 99.71 58.93 99.92 59.13 100.15 59.28 100.39 59.43 100.65 59.54 100.91 59.63 101.17 59.69 101.5 59.74 101.83 59.78 102.17 59.82 102.51 59.84 102.84 59.86 103.19 59.86 103.53 59.84 103.88 59.82 104.23 59.77 104.59 59.7 104.95 59.62 105.3 59.51 105.67 59.36 106.04 59.21 106.41 59 106.78 58.78 106.26 61.98 106.06 62.08 105.85 62.18 105.64 62.26 105.44 62.34 105.25 62.4 105.04 62.47 104.83 62.52 104.61 62.56 104.38 62.6 104.12 62.63 103.84 62.65 103.55 62.68 103.21 62.69 102.86 62.69 102.45 62.7 102.02 62.7 101.39 62.69 100.74 62.63 100.09 62.53 99.44 62.38 98.8 62.18 98.19 61.94 97.6 61.61 97.06 61.23 96.55 60.79 96.11 60.26 95.73 59.66 95.42 58.97 95.2 58.2 95.06 57.33 95.02 56.37 95.08 55.3 95.13 54.89 95.21 54.41 95.32 53.9 95.46 53.35 95.65 52.8 95.89 52.24 96.19 51.66 96.55 51.12 96.97 50.6 97.47 50.1 98.05 49.66 98.7 49.27 99.45 48.95 100.3 48.71 101.23 48.56 102.28 48.51 102.79 48.52 103.33 48.57 103.86 48.66 104.39 48.79 104.91 48.99 105.42 49.22 105.89 49.53 106.31 49.9 106.7 50.34 107.03 50.86 107.29 51.46 107.47 52.15 107.58 52.93 107.59 53.81 107.5 54.8 107.3 55.89 107.24 56.68 97.76 56.68 98.36 54.12 104.05 54.12 104.08 53.8 104.07 53.48 104.04 53.2 103.99 52.94 103.9 52.69 103.81 52.47 103.68 52.28 103.55 52.09 103.39 51.94 103.22 51.81 103.03 51.69 102.83 51.59 102.62 51.51 102.42 51.46 102.19 51.42 101.96 51.39 101.71 51.41 101.48 51.44 101.26 51.5 101.04 51.57 100.81 51.68 100.62 51.8 100.42 51.94 100.26 52.09 100.09 52.28 99.93 52.47 99.79 52.68 99.67 52.9 99.55 53.13 99.46 53.39 99.39 53.65 99.33 53.93 98.81 56.62 98.81 56.62"/><polygon class="cls-5" points="98.81 56.62 98.81 56.62 98.77 56.84 98.76 57.07 98.79 57.32 98.84 57.57 98.93 57.81 99.03 58.05 99.18 58.3 99.33 58.52 99.52 58.74 99.71 58.93 99.92 59.13 100.15 59.28 100.39 59.43 100.65 59.54 100.91 59.63 101.17 59.69 101.17 59.69 101.5 59.74 101.83 59.78 102.17 59.82 102.51 59.84 102.84 59.86 103.19 59.86 103.53 59.84 103.88 59.82 104.23 59.77 104.59 59.7 104.95 59.62 105.3 59.51 105.67 59.36 106.04 59.21 106.41 59 106.78 58.78 106.26 61.98 106.26 61.98 106.06 62.08 105.85 62.18 105.64 62.26 105.44 62.34 105.25 62.4 105.04 62.47 104.83 62.52 104.61 62.56 104.38 62.6 104.12 62.63 103.84 62.65 103.55 62.68 103.21 62.69 102.86 62.69 102.45 62.7 102.02 62.7 102.02 62.7 101.39 62.69 100.74 62.63 100.09 62.53 99.44 62.38 98.8 62.18 98.19 61.94 97.6 61.61 97.06 61.23 96.55 60.79 96.11 60.26 95.73 59.66 95.42 58.97 95.2 58.2 95.06 57.33 95.02 56.37 95.08 55.3 95.08 55.3 95.13 54.89 95.21 54.41 95.32 53.9 95.46 53.35 95.65 52.8 95.89 52.24 96.19 51.66 96.55 51.12 96.97 50.6 97.47 50.1 98.05 49.66 98.7 49.27 99.45 48.95 100.3 48.71 101.23 48.56 102.28 48.51 102.28 48.51 102.79 48.52 103.33 48.57 103.86 48.66 104.39 48.79 104.91 48.99 105.42 49.22 105.89 49.53 106.31 49.9 106.7 50.34 107.03 50.86 107.29 51.46 107.47 52.15 107.58 52.93 107.59 53.81 107.5 54.8 107.3 55.89 107.24 56.68 97.76 56.68 98.36 54.12 104.05 54.12 104.05 54.12 104.08 53.8 104.07 53.48 104.04 53.2 103.99 52.94 103.9 52.69 103.81 52.47 103.68 52.28 103.55 52.09 103.39 51.94 103.22 51.81 103.03 51.69 102.83 51.59 102.62 51.51 102.42 51.46 102.19 51.42 101.96 51.39 101.96 51.39 101.71 51.41 101.48 51.44 101.26 51.5 101.04 51.57 100.81 51.68 100.62 51.8 100.42 51.94 100.26 52.09 100.09 52.28 99.93 52.47 99.79 52.68 99.67 52.9 99.55 53.13 99.46 53.39 99.39 53.65 99.33 53.93 98.81 56.62"/><polygon class="cls-4" points="129.82 49.56 129.65 49.47 129.49 49.39 129.3 49.3 129.11 49.21 128.91 49.13 128.69 49.05 128.47 48.97 128.24 48.9 127.99 48.83 127.74 48.78 127.47 48.73 127.2 48.69 126.9 48.66 126.6 48.63 125.64 48.63 125.3 48.66 124.95 48.7 124.58 48.77 124.22 48.87 123.86 49.01 123.49 49.2 123.13 49.43 122.78 49.72 122.44 50.05 122.11 50.47 121.8 50.95 121.52 51.52 121.24 52.17 120.99 52.9 120.79 53.73 120.71 54.2 120.66 54.66 120.63 55.11 120.64 55.55 120.68 55.99 120.77 56.41 120.89 56.8 121.03 57.19 121.23 57.54 121.46 57.88 121.74 58.18 122.05 58.45 122.4 58.69 122.8 58.88 123.24 59.05 123.74 59.17 123.91 59.21 124.1 59.24 124.34 59.27 124.59 59.3 124.88 59.32 125.51 59.32 125.83 59.3 126.17 59.26 126.51 59.19 126.83 59.1 127.16 59 127.48 58.85 127.78 58.69 128.05 58.48 128.31 58.24 127.73 61.72 127.65 61.78 127.57 61.86 127.47 61.95 127.35 62.03 127.21 62.13 127.03 62.22 126.82 62.31 126.58 62.39 126.29 62.48 125.95 62.55 125.56 62.6 125.1 62.65 124.59 62.68 124.01 62.69 123.35 62.68 122.62 62.64 122.02 62.57 121.42 62.44 120.83 62.25 120.23 61.99 119.66 61.68 119.11 61.29 118.59 60.83 118.11 60.31 117.68 59.73 117.31 59.08 117 58.35 116.77 57.55 116.61 56.68 116.56 55.76 116.59 54.75 116.73 53.67 116.83 53.13 116.95 52.61 117.08 52.11 117.21 51.63 117.35 51.17 117.52 50.72 117.69 50.29 117.87 49.88 118.07 49.48 118.26 49.1 118.48 48.74 118.72 48.4 118.95 48.08 119.21 47.76 119.47 47.48 119.75 47.2 120.05 46.95 120.34 46.7 120.66 46.48 120.98 46.27 121.33 46.07 121.68 45.91 122.05 45.75 122.42 45.61 122.83 45.48 123.23 45.37 123.65 45.28 124.09 45.2 124.53 45.14 125 45.09 125.47 45.06 125.96 45.05 126.38 45.06 126.78 45.09 127.17 45.12 127.56 45.18 127.92 45.23 128.28 45.31 128.61 45.37 128.93 45.45 129.22 45.53 129.49 45.61 129.73 45.68 129.94 45.76 130.12 45.83 130.28 45.88 130.4 45.93 130.47 45.96 129.82 49.56 129.82 49.56"/><polygon class="cls-5" points="129.82 49.56 129.82 49.56 129.65 49.47 129.49 49.39 129.3 49.3 129.11 49.21 128.91 49.13 128.69 49.05 128.47 48.97 128.24 48.9 127.99 48.83 127.74 48.78 127.47 48.73 127.2 48.69 126.9 48.66 126.6 48.63 125.96 48.63 125.64 48.63 125.3 48.66 124.95 48.7 124.58 48.77 124.22 48.87 123.86 49.01 123.49 49.2 123.13 49.43 122.78 49.72 122.44 50.05 122.11 50.47 121.8 50.95 121.52 51.52 121.24 52.17 120.99 52.9 120.79 53.73 120.79 53.73 120.71 54.2 120.66 54.66 120.63 55.11 120.64 55.55 120.68 55.99 120.77 56.41 120.89 56.8 121.03 57.19 121.23 57.54 121.46 57.88 121.74 58.18 122.05 58.45 122.4 58.69 122.8 58.88 123.24 59.05 123.74 59.17 123.74 59.17 123.91 59.21 124.1 59.24 124.34 59.27 124.59 59.3 124.88 59.32 125.51 59.32 125.83 59.3 126.17 59.26 126.51 59.19 126.83 59.1 127.16 59 127.48 58.85 127.78 58.69 128.05 58.48 128.31 58.24 127.73 61.72 127.73 61.72 127.65 61.78 127.57 61.86 127.47 61.95 127.35 62.03 127.21 62.13 127.03 62.22 126.82 62.31 126.58 62.39 126.29 62.48 125.95 62.55 125.56 62.6 125.1 62.65 124.59 62.68 124.01 62.69 123.35 62.68 122.62 62.64 122.62 62.64 122.02 62.57 121.42 62.44 120.83 62.25 120.23 61.99 119.66 61.68 119.11 61.29 118.59 60.83 118.11 60.31 117.68 59.73 117.31 59.08 117 58.35 116.77 57.55 116.61 56.68 116.56 55.76 116.59 54.75 116.73 53.67 116.73 53.67 116.83 53.13 116.95 52.61 117.08 52.11 117.21 51.63 117.35 51.17 117.52 50.72 117.69 50.29 117.87 49.88 118.07 49.48 118.26 49.1 118.48 48.74 118.72 48.4 118.95 48.08 119.21 47.76 119.47 47.48 119.75 47.2 120.05 46.95 120.34 46.7 120.66 46.48 120.98 46.27 121.33 46.07 121.68 45.91 122.05 45.75 122.42 45.61 122.83 45.48 123.23 45.37 123.65 45.28 124.09 45.2 124.53 45.14 125 45.09 125.47 45.06 125.96 45.05 125.96 45.05 126.38 45.06 126.78 45.09 127.17 45.12 127.56 45.18 127.92 45.23 128.28 45.31 128.61 45.37 128.93 45.45 129.22 45.53 129.49 45.61 129.73 45.68 129.94 45.76 130.12 45.83 130.28 45.88 130.4 45.93 130.47 45.96 129.82 49.56"/><polygon class="cls-4" points="161.83 62.7 158.23 62.7 158.49 61.26 158.49 61.13 158.28 61.39 158.06 61.62 157.84 61.83 157.61 62.01 157.37 62.18 157.14 62.33 156.91 62.44 156.66 62.56 156.41 62.65 156.16 62.72 155.92 62.78 155.66 62.82 155.4 62.86 155.15 62.88 154.89 62.9 154.63 62.9 153.96 62.85 153.33 62.7 152.76 62.48 152.24 62.18 151.77 61.81 151.35 61.36 150.99 60.88 150.68 60.34 150.42 59.75 150.21 59.14 150.07 58.5 149.96 57.84 149.92 57.18 149.94 56.5 150 55.84 150.12 55.17 150.31 54.41 150.55 53.68 150.82 53.02 151.15 52.39 151.48 51.81 151.87 51.29 152.28 50.82 152.71 50.39 153.16 50.01 153.64 49.69 154.14 49.4 154.63 49.18 155.15 49 155.67 48.88 156.19 48.8 156.72 48.78 157.1 48.79 157.47 48.83 157.8 48.9 158.12 48.99 158.41 49.09 158.67 49.21 158.93 49.35 159.17 49.49 159.38 49.65 159.57 49.82 159.74 49.99 159.9 50.16 160.03 50.33 160.14 50.49 160.25 50.65 160.32 50.81 160.32 50.81 161.24 45.7 164.77 45.7 161.83 62.7 161.83 62.7"/><polygon class="cls-5" points="161.83 62.7 158.23 62.7 158.49 61.26 158.49 61.13 158.28 61.39 158.06 61.62 157.84 61.83 157.61 62.01 157.37 62.18 157.14 62.33 156.91 62.44 156.66 62.56 156.41 62.65 156.16 62.72 155.92 62.78 155.66 62.82 155.4 62.86 155.15 62.88 154.89 62.9 154.63 62.9 154.63 62.9 153.96 62.85 153.33 62.7 152.76 62.48 152.24 62.18 151.77 61.81 151.35 61.36 150.99 60.88 150.68 60.34 150.42 59.75 150.21 59.14 150.07 58.5 149.96 57.84 149.92 57.18 149.94 56.5 150 55.84 150.12 55.17 150.12 55.17 150.31 54.41 150.55 53.68 150.82 53.02 151.15 52.39 151.48 51.81 151.87 51.29 152.28 50.82 152.71 50.39 153.16 50.01 153.64 49.69 154.14 49.4 154.63 49.18 155.15 49 155.67 48.88 156.19 48.8 156.72 48.78 156.72 48.78 157.1 48.79 157.47 48.83 157.8 48.9 158.12 48.99 158.41 49.09 158.67 49.21 158.93 49.35 159.17 49.49 159.38 49.65 159.57 49.82 159.74 49.99 159.9 50.16 160.03 50.33 160.14 50.49 160.25 50.65 160.32 50.81 160.32 50.81 161.24 45.7 164.77 45.7 161.83 62.7"/><polygon class="cls-2" points="155.94 59.56 156.31 59.53 156.65 59.45 156.96 59.36 157.26 59.22 157.53 59.06 157.79 58.87 158.04 58.65 158.26 58.41 158.45 58.15 158.63 57.87 158.8 57.57 158.95 57.26 159.08 56.93 159.18 56.59 159.27 56.24 159.34 55.89 159.4 55.53 159.44 55.15 159.44 54.8 159.43 54.43 159.39 54.1 159.34 53.77 159.25 53.46 159.14 53.16 159.01 52.9 158.86 52.65 158.69 52.45 158.49 52.26 158.27 52.11 158.04 52 157.79 51.94 157.52 51.91 157.16 51.94 156.84 51.99 156.54 52.09 156.24 52.22 155.98 52.39 155.72 52.6 155.5 52.82 155.28 53.07 155.09 53.35 154.9 53.65 154.73 53.97 154.59 54.3 154.46 54.66 154.36 55.01 154.25 55.38 154.18 55.76 154.11 56.33 154.14 56.96 154.23 57.59 154.4 58.2 154.66 58.74 155 59.17 155.42 59.45 155.94 59.56 155.94 59.56"/><polygon class="cls-4" points="76.1 59.82 75.58 62.7 72.3 62.7 72.39 62.17 72.46 61.69 72.51 61.33 72.56 61.13 72.38 61.34 72.17 61.55 71.92 61.74 71.65 61.92 71.34 62.1 71.02 62.26 70.68 62.42 70.33 62.55 69.95 62.66 69.57 62.76 69.19 62.83 68.81 62.88 68.43 62.91 68.05 62.92 67.69 62.88 67.34 62.83 66.88 62.72 66.47 62.59 66.1 62.42 65.78 62.22 65.49 62.01 65.23 61.78 65.02 61.53 64.84 61.27 64.68 61 64.55 60.71 64.45 60.43 64.37 60.14 64.32 59.84 64.28 59.54 64.25 59.26 64.25 58.97 64.29 58.47 64.37 57.98 64.5 57.53 64.67 57.09 64.88 56.67 65.11 56.29 65.39 55.93 65.7 55.6 66.02 55.3 66.39 55.03 66.76 54.78 67.15 54.58 67.57 54.4 68 54.25 68.44 54.13 68.9 54.06 68.92 54.06 68.99 54.04 69.08 54.03 69.22 54.02 69.38 53.99 69.56 53.98 69.75 53.95 69.97 53.93 70.2 53.9 70.42 53.88 70.65 53.86 70.86 53.84 71.07 53.82 71.26 53.81 71.44 53.8 71.89 53.8 72.2 53.81 72.48 53.82 72.77 53.82 73 53.84 73.19 53.85 73.32 53.86 73.36 53.86 73.38 53.77 73.46 53.54 73.52 53.26 73.55 53.02 73.5 52.73 73.38 52.47 73.22 52.24 73.02 52.04 72.77 51.87 72.5 51.76 72.19 51.68 71.85 51.65 71.48 51.64 71.09 51.63 70.69 51.63 70.27 51.64 69.84 51.66 69.43 51.7 69.01 51.74 68.61 51.8 68.22 51.85 67.84 51.91 67.5 51.98 67.19 52.04 66.91 52.12 66.67 52.2 66.49 52.29 66.35 52.37 67.27 49.23 67.56 49.12 67.84 49.01 68.15 48.92 68.47 48.86 68.78 48.79 69.12 48.74 69.45 48.69 69.81 48.66 70.17 48.63 70.55 48.62 70.94 48.61 72.19 48.61 72.64 48.62 73.09 48.63 73.46 48.66 73.85 48.73 74.25 48.82 74.67 48.93 75.07 49.09 75.46 49.27 75.85 49.49 76.22 49.74 76.54 50.03 76.83 50.34 77.09 50.69 77.28 51.08 77.41 51.5 77.49 51.94 77.49 52.43 77.41 52.95 76.1 59.82 76.1 59.82"/><polygon class="cls-5" points="76.1 59.82 75.58 62.7 72.3 62.7 72.3 62.7 72.39 62.17 72.46 61.69 72.51 61.33 72.56 61.13 72.56 61.13 72.38 61.34 72.17 61.55 71.92 61.74 71.65 61.92 71.34 62.1 71.02 62.26 70.68 62.42 70.33 62.55 69.95 62.66 69.57 62.76 69.19 62.83 68.81 62.88 68.43 62.91 68.05 62.92 67.69 62.88 67.34 62.83 67.34 62.83 66.88 62.72 66.47 62.59 66.1 62.42 65.78 62.22 65.49 62.01 65.23 61.78 65.02 61.53 64.84 61.27 64.68 61 64.55 60.71 64.45 60.43 64.37 60.14 64.32 59.84 64.28 59.54 64.25 59.26 64.25 58.97 64.29 58.47 64.37 57.98 64.5 57.53 64.67 57.09 64.88 56.67 65.11 56.29 65.39 55.93 65.7 55.6 66.02 55.3 66.39 55.03 66.76 54.78 67.15 54.58 67.57 54.4 68 54.25 68.44 54.13 68.9 54.06 68.92 54.06 68.99 54.04 69.08 54.03 69.22 54.02 69.38 53.99 69.56 53.98 69.75 53.95 69.97 53.93 70.2 53.9 70.42 53.88 70.65 53.86 70.86 53.84 71.07 53.82 71.26 53.81 71.44 53.8 71.59 53.8 71.89 53.8 72.2 53.81 72.48 53.82 72.77 53.82 73 53.84 73.19 53.85 73.32 53.86 73.36 53.86 73.36 53.86 73.38 53.77 73.46 53.54 73.52 53.26 73.55 53.02 73.55 53.02 73.5 52.73 73.38 52.47 73.22 52.24 73.02 52.04 72.77 51.87 72.5 51.76 72.19 51.68 71.85 51.65 71.85 51.65 71.48 51.64 71.09 51.63 70.69 51.63 70.27 51.64 69.84 51.66 69.43 51.7 69.01 51.74 68.61 51.8 68.22 51.85 67.84 51.91 67.5 51.98 67.19 52.04 66.91 52.12 66.67 52.2 66.49 52.29 66.35 52.37 67.27 49.23 67.27 49.23 67.56 49.12 67.84 49.01 68.15 48.92 68.47 48.86 68.78 48.79 69.12 48.74 69.45 48.69 69.81 48.66 70.17 48.63 70.55 48.62 70.94 48.61 72.19 48.61 72.64 48.62 73.09 48.63 73.09 48.63 73.46 48.66 73.85 48.73 74.25 48.82 74.67 48.93 75.07 49.09 75.46 49.27 75.85 49.49 76.22 49.74 76.54 50.03 76.83 50.34 77.09 50.69 77.28 51.08 77.41 51.5 77.49 51.94 77.49 52.43 77.41 52.95 76.1 59.82"/><polygon class="cls-3" points="72.97 56.42 72.95 56.36 72.9 56.29 72.82 56.25 72.69 56.23 72.55 56.2 72.38 56.19 71.99 56.19 71.78 56.2 71.56 56.23 71.35 56.25 71.14 56.28 70.95 56.31 70.77 56.34 70.61 56.38 70.47 56.42 70.38 56.45 70.27 56.49 70.13 56.54 69.99 56.6 69.82 56.68 69.65 56.77 69.47 56.87 69.3 56.97 69.12 57.1 68.95 57.23 68.79 57.38 68.65 57.54 68.52 57.71 68.43 57.89 68.35 58.1 68.31 58.31 68.3 58.75 68.36 59.1 68.49 59.36 68.66 59.56 68.86 59.69 69.08 59.77 69.28 59.8 69.49 59.82 69.88 59.8 70.23 59.77 70.57 59.71 70.87 59.63 71.13 59.54 71.38 59.43 71.6 59.31 71.8 59.17 71.96 59.04 72.12 58.88 72.25 58.74 72.35 58.58 72.44 58.43 72.52 58.27 72.59 58.13 72.63 57.98 72.73 57.61 72.82 57.18 72.9 56.76 72.97 56.42 72.97 56.42"/><polygon class="cls-4" points="48.74 62.7 45.21 62.7 48.16 45.63 54.31 45.63 54.89 55.76 59.14 45.63 65.57 45.63 62.55 62.7 59.01 62.7 61.25 49.95 61.11 49.95 55.82 62.7 51.82 62.7 51.8 62.17 51.71 60.75 51.59 58.74 51.46 56.42 51.33 54.1 51.21 52.05 51.12 50.57 51.1 49.95 50.9 49.95 50.9 49.95 48.74 62.7 48.74 62.7"/><polygon class="cls-5" points="48.74 62.7 45.21 62.7 48.16 45.63 54.31 45.63 54.89 55.76 59.14 45.63 65.57 45.63 62.55 62.7 59.01 62.7 61.25 49.95 61.11 49.95 55.82 62.7 51.82 62.7 51.82 62.7 51.8 62.17 51.71 60.75 51.59 58.74 51.46 56.42 51.33 54.1 51.21 52.05 51.12 50.57 51.1 49.95 50.9 49.95 50.9 49.95 48.74 62.7"/><polygon class="cls-4" points="140.63 59.82 140.09 62.7 136.83 62.7 136.86 62.17 136.87 61.7 136.87 61.35 136.9 61.2 136.73 61.39 136.53 61.59 136.3 61.77 136.04 61.95 135.76 62.12 135.45 62.27 135.13 62.43 134.8 62.56 134.45 62.66 134.09 62.77 133.72 62.83 133.36 62.88 132.98 62.91 132.62 62.92 132.27 62.88 131.92 62.83 131.45 62.72 131.03 62.59 130.67 62.42 130.33 62.22 130.04 62.01 129.8 61.78 129.59 61.53 129.41 61.27 129.25 61 129.13 60.71 129.03 60.43 128.96 60.14 128.91 59.84 128.87 59.54 128.85 59.26 128.85 58.97 128.87 58.47 128.95 57.98 129.07 57.53 129.24 57.09 129.43 56.67 129.68 56.29 129.95 55.93 130.25 55.6 130.59 55.3 130.94 55.03 131.32 54.78 131.72 54.58 132.12 54.4 132.55 54.25 132.98 54.13 133.43 54.06 133.45 54.06 133.51 54.04 133.61 54.03 133.74 54.02 133.91 53.99 134.09 53.98 134.28 53.95 134.49 53.93 134.71 53.9 134.95 53.88 135.17 53.86 135.39 53.84 135.59 53.82 135.78 53.81 135.96 53.8 136.41 53.8 136.73 53.81 137.03 53.82 137.31 53.82 137.56 53.84 137.77 53.85 137.88 53.86 137.94 53.86 137.96 53.77 138 53.54 138.04 53.26 138.07 53.02 138.01 52.73 137.91 52.47 137.74 52.24 137.55 52.04 137.31 51.87 137.04 51.76 136.75 51.68 136.44 51.65 136.08 51.64 135.69 51.63 135.28 51.63 134.87 51.64 134.44 51.66 134.02 51.7 133.61 51.74 133.2 51.8 132.81 51.85 132.44 51.91 132.1 51.98 131.79 52.04 131.5 52.12 131.27 52.2 131.08 52.29 130.94 52.37 131.85 49.23 132.14 49.12 132.44 49.01 132.74 48.92 133.05 48.86 133.37 48.79 133.7 48.74 134.03 48.69 134.39 48.66 134.75 48.63 135.13 48.62 135.5 48.61 136.73 48.61 137.17 48.62 137.61 48.63 137.97 48.66 138.37 48.73 138.77 48.82 139.18 48.93 139.59 49.09 139.99 49.27 140.38 49.49 140.74 49.74 141.07 50.03 141.37 50.34 141.63 50.69 141.82 51.08 141.97 51.5 142.06 51.94 142.06 52.43 141.99 52.95 140.63 59.82 140.63 59.82"/><polygon class="cls-4" points="140.09 62.79 140.17 62.72 140.71 59.83 140.55 59.8 140.02 62.69 140.09 62.61 140.09 62.79 140.16 62.78 140.17 62.72 140.09 62.79 140.09 62.79"/><polygon class="cls-4" points="136.75 62.7 136.83 62.79 140.09 62.79 140.09 62.61 136.83 62.61 136.91 62.7 136.75 62.7 136.74 62.79 136.83 62.79 136.75 62.7 136.75 62.7"/><polygon class="cls-4" points="136.96 61.25 136.84 61.14 136.79 61.35 136.78 61.7 136.78 62.17 136.75 62.7 136.91 62.7 136.94 62.17 136.96 61.7 136.95 61.35 136.95 61.25 136.83 61.14 136.96 61.25 136.96 61.25"/><polygon class="cls-4" points="131.9 62.91 131.9 62.91 132.27 62.96 132.62 63 132.98 62.99 133.36 62.96 133.74 62.91 134.1 62.85 134.46 62.74 134.83 62.64 135.15 62.51 135.49 62.35 135.8 62.2 136.08 62.01 136.35 61.83 136.58 61.65 136.79 61.44 136.96 61.25 136.83 61.14 136.66 61.34 136.48 61.52 136.25 61.7 136 61.88 135.73 62.04 135.41 62.2 135.1 62.35 134.78 62.48 134.44 62.59 134.07 62.69 133.71 62.76 133.36 62.81 132.98 62.83 132.62 62.85 132.27 62.81 131.93 62.76 131.93 62.76 131.9 62.91 131.9 62.91"/><polygon class="cls-4" points="128.76 58.97 128.76 58.97 128.77 59.26 128.8 59.54 128.83 59.86 128.89 60.16 128.95 60.44 129.06 60.74 129.17 61.04 129.34 61.31 129.52 61.59 129.73 61.83 129.99 62.08 130.29 62.29 130.63 62.49 131 62.66 131.44 62.79 131.9 62.91 131.93 62.76 131.46 62.64 131.06 62.51 130.71 62.34 130.37 62.16 130.09 61.95 129.86 61.73 129.65 61.48 129.47 61.23 129.33 60.96 129.21 60.69 129.11 60.41 129.04 60.13 128.99 59.83 128.95 59.54 128.93 59.26 128.94 58.97 128.76 58.97 128.76 58.97"/><polygon class="cls-4" points="133.43 53.98 133.43 53.98 132.97 54.06 132.53 54.17 132.1 54.32 131.68 54.5 131.28 54.71 130.89 54.97 130.54 55.24 130.2 55.55 129.89 55.88 129.62 56.24 129.35 56.63 129.16 57.06 128.99 57.5 128.87 57.97 128.8 58.47 128.76 58.97 128.94 58.97 128.95 58.47 129.03 58 129.15 57.55 129.31 57.11 129.51 56.71 129.74 56.34 130.02 55.98 130.3 55.66 130.64 55.37 130.99 55.1 131.36 54.86 131.76 54.66 132.15 54.47 132.58 54.33 133 54.21 133.43 54.13 133.43 53.98"/><polygon class="cls-4" points="136.1 53.71 135.96 53.71 135.78 53.73 135.59 53.74 135.39 53.76 135.17 53.78 134.95 53.8 134.71 53.82 134.49 53.85 134.28 53.88 134.09 53.9 133.91 53.91 133.74 53.94 133.61 53.95 133.5 53.97 133.45 53.98 133.43 53.98 133.43 54.13 133.45 54.13 133.53 54.12 133.61 54.11 133.74 54.1 133.91 54.07 134.09 54.06 134.28 54.03 134.49 54.01 134.71 53.98 134.95 53.95 135.17 53.94 135.39 53.91 135.59 53.9 135.78 53.89 136.1 53.89 136.1 53.71"/><polygon class="cls-4" points="137.86 53.85 137.94 53.78 137.88 53.78 137.77 53.77 137.56 53.76 137.31 53.73 136.73 53.73 136.41 53.71 136.1 53.71 136.1 53.89 136.73 53.89 137.03 53.91 137.56 53.91 137.77 53.93 137.88 53.94 137.94 53.94 138.01 53.88 137.94 53.94 138 53.95 138.01 53.88 137.86 53.85 137.86 53.85"/><polygon class="cls-4" points="137.99 53.02 137.97 53.02 137.96 53.26 137.92 53.52 137.88 53.76 137.86 53.85 138.01 53.88 138.04 53.78 138.08 53.55 138.12 53.26 138.16 53.02 137.99 53.02 137.99 53.02"/><polygon class="cls-4" points="136.44 51.73 136.44 51.74 136.74 51.76 137.01 51.83 137.27 51.95 137.49 52.11 137.68 52.29 137.83 52.51 137.94 52.74 137.99 53.02 138.14 53.02 138.09 52.72 137.99 52.43 137.81 52.19 137.6 51.98 137.35 51.8 137.06 51.68 136.77 51.6 136.44 51.56 136.44 51.73"/><polygon class="cls-4" points="130.86 52.35 130.99 52.43 131.12 52.37 131.29 52.28 131.51 52.2 131.8 52.12 132.11 52.05 132.45 51.99 132.83 51.92 133.2 51.87 133.61 51.82 134.02 51.78 134.44 51.74 134.87 51.72 136.08 51.72 136.44 51.73 136.44 51.57 136.08 51.56 135.69 51.53 135.28 51.53 134.87 51.56 134.44 51.59 134.02 51.63 133.61 51.66 133.2 51.72 132.8 51.77 132.42 51.83 132.09 51.9 131.77 51.96 131.49 52.04 131.24 52.12 131.04 52.21 130.89 52.3 131.02 52.38 130.86 52.35 130.86 52.35"/><polygon class="cls-4" points="131.82 49.16 131.77 49.22 130.86 52.35 131.02 52.38 131.93 49.25 131.88 49.31 131.82 49.16 131.79 49.17 131.77 49.22 131.82 49.16 131.82 49.16"/><polygon class="cls-4" points="137.61 48.56 137.61 48.56 137.17 48.53 136.73 48.52 135.5 48.52 135.13 48.54 134.75 48.56 134.39 48.58 134.03 48.61 133.68 48.66 133.36 48.71 133.03 48.78 132.72 48.84 132.41 48.93 132.11 49.04 131.82 49.16 131.88 49.31 132.16 49.2 132.46 49.09 132.75 49 133.06 48.93 133.39 48.87 133.71 48.82 134.03 48.77 134.39 48.74 134.75 48.71 135.13 48.7 136.73 48.7 137.17 48.71 137.61 48.71 137.61 48.56"/><polygon class="cls-4" points="142.07 52.97 142.07 52.97 142.14 52.43 142.14 51.94 142.04 51.48 141.9 51.05 141.69 50.65 141.43 50.29 141.12 49.96 140.8 49.68 140.42 49.43 140.03 49.2 139.61 49.01 139.21 48.86 138.78 48.74 138.38 48.65 137.97 48.58 137.61 48.56 137.61 48.71 137.97 48.74 138.35 48.8 138.75 48.9 139.16 49.01 139.56 49.17 139.95 49.35 140.34 49.56 140.69 49.8 141.02 50.09 141.3 50.39 141.56 50.73 141.75 51.11 141.89 51.51 141.98 51.94 141.98 52.43 141.91 52.94 141.91 52.94 142.07 52.97 142.07 52.97"/><polygon class="cls-4" points="140.71 59.83 140.71 59.83 142.07 52.97 141.91 52.94 140.55 59.8 140.55 59.8 140.71 59.83 140.71 59.83"/><polygon class="cls-2" points="137.48 56.42 137.46 56.34 137.4 56.28 137.31 56.24 137.18 56.2 137.04 56.19 136.87 56.18 136.68 56.18 136.48 56.19 136.27 56.22 136.06 56.24 135.85 56.27 135.66 56.29 135.47 56.33 135.3 56.36 135.13 56.4 135 56.42 134.91 56.44 134.8 56.48 134.67 56.52 134.53 56.57 134.36 56.64 134.2 56.72 134.02 56.81 133.85 56.93 133.68 57.05 133.51 57.19 133.37 57.33 133.23 57.5 133.11 57.68 133.02 57.88 132.94 58.09 132.9 58.31 132.89 58.75 132.96 59.1 133.06 59.36 133.22 59.56 133.41 59.69 133.63 59.77 133.85 59.8 134.07 59.82 134.46 59.8 134.83 59.77 135.17 59.7 135.47 59.61 135.75 59.51 136 59.39 136.23 59.26 136.44 59.1 136.62 58.96 136.78 58.79 136.92 58.63 137.04 58.47 137.13 58.31 137.19 58.15 137.25 58 137.29 57.85 137.34 57.49 137.4 57.11 137.46 56.75 137.48 56.42 137.48 56.42"/><polygon class="cls-4" points="164.26 60.92 164.29 60.62 164.4 60.27 164.58 59.96 164.8 59.69 165.07 59.47 165.38 59.31 165.72 59.21 166.09 59.17 166.45 59.21 166.79 59.31 167.1 59.47 167.37 59.69 167.59 59.96 167.78 60.27 167.88 60.62 167.91 60.92 167.51 60.92 167.5 60.69 167.42 60.4 167.29 60.14 167.13 59.92 166.92 59.74 166.67 59.61 166.38 59.52 166.09 59.49 165.79 59.52 165.5 59.61 165.25 59.74 165.04 59.92 164.88 60.14 164.75 60.4 164.67 60.69 164.64 60.92 164.26 60.92 164.26 60.92"/><polygon class="cls-4" points="165.44 60.92 165.44 60.14 166.15 60.14 166.31 60.16 166.45 60.18 166.55 60.22 166.64 60.27 166.71 60.35 166.76 60.43 166.79 60.52 166.8 60.61 166.79 60.73 166.76 60.82 166.72 60.9 166.7 60.92 166.15 60.92 166.2 60.91 166.29 60.9 166.37 60.87 166.44 60.84 166.49 60.8 166.51 60.77 166.54 60.7 166.54 60.61 166.53 60.55 166.5 60.49 166.46 60.47 166.42 60.44 166.36 60.43 166.29 60.41 165.76 60.41 165.76 60.92 165.44 60.92 165.44 60.92"/><polygon class="cls-4" points="164.26 60.92 164.25 61 164.29 61.38 164.4 61.73 164.58 62.04 164.8 62.3 165.07 62.52 165.38 62.69 165.72 62.79 166.09 62.83 166.45 62.79 166.79 62.69 167.1 62.52 167.37 62.3 167.59 62.04 167.78 61.73 167.88 61.38 167.92 61 167.91 60.92 167.51 60.92 167.53 61 167.5 61.31 167.42 61.6 167.29 61.84 167.13 62.07 166.92 62.25 166.67 62.39 166.38 62.48 166.09 62.51 165.79 62.48 165.5 62.39 165.25 62.25 165.04 62.07 164.88 61.84 164.75 61.6 164.67 61.31 164.64 61 164.64 60.92 164.26 60.92 164.26 60.92"/><polygon class="cls-4" points="165.44 60.92 165.44 61.72 165.76 61.72 165.76 61.06 166.09 61.06 166.47 61.72 166.74 61.72 166.34 61.06 166.44 61.06 166.53 61.04 166.6 61.01 166.67 60.96 166.7 60.92 166.15 60.92 166.09 60.94 165.76 60.94 165.76 60.92 165.44 60.92 165.44 60.92"/><polygon class="cls-5" points="164.25 61 164.25 61 164.29 60.62 164.4 60.27 164.58 59.96 164.8 59.69 165.07 59.47 165.38 59.31 165.72 59.21 166.09 59.17 166.09 59.17 166.45 59.21 166.79 59.31 167.1 59.47 167.37 59.69 167.59 59.96 167.78 60.27 167.88 60.62 167.92 61 167.92 61 167.88 61.38 167.78 61.73 167.59 62.04 167.37 62.3 167.1 62.52 166.79 62.69 166.45 62.79 166.09 62.83 166.09 62.83 165.72 62.79 165.38 62.69 165.07 62.52 164.8 62.3 164.58 62.04 164.4 61.73 164.29 61.38 164.25 61"/><polygon class="cls-5" points="165.76 61.72 165.44 61.72 165.44 60.14 166.15 60.14 166.15 60.14 166.31 60.16 166.45 60.18 166.55 60.22 166.64 60.27 166.71 60.35 166.76 60.43 166.79 60.52 166.8 60.61 166.8 60.61 166.79 60.73 166.76 60.82 166.72 60.9 166.67 60.96 166.6 61.01 166.53 61.04 166.44 61.06 166.34 61.06 166.74 61.72 166.47 61.72 166.09 61.06 165.76 61.06 165.76 61.72"/><polygon class="cls-5" points="166.09 60.94 166.09 60.94 166.2 60.91 166.29 60.9 166.37 60.87 166.44 60.84 166.49 60.8 166.51 60.77 166.54 60.7 166.54 60.61 166.53 60.55 166.5 60.49 166.46 60.47 166.42 60.44 166.36 60.43 166.29 60.41 165.76 60.41 165.76 60.94 166.09 60.94"/><polygon class="cls-5" points="166.09 62.51 166.09 62.51 166.38 62.48 166.67 62.39 166.92 62.25 167.13 62.07 167.29 61.84 167.42 61.6 167.5 61.31 167.53 61 167.53 61 167.5 60.69 167.42 60.4 167.29 60.14 167.13 59.92 166.92 59.74 166.67 59.61 166.38 59.52 166.09 59.49 166.09 59.49 165.79 59.52 165.5 59.61 165.25 59.74 165.04 59.92 164.88 60.14 164.75 60.4 164.67 60.69 164.64 61 164.64 61 164.67 61.31 164.75 61.6 164.88 61.84 165.04 62.07 165.25 62.25 165.5 62.39 165.79 62.48 166.09 62.51"/><polygon class="cls-4" points="141.6 62.7 145.27 62.7 145.27 62.7 146.58 55.3 146.63 55.02 146.71 54.73 146.79 54.45 146.9 54.16 147.02 53.88 147.18 53.6 147.35 53.34 147.56 53.09 147.79 52.87 148.05 52.67 148.35 52.47 148.69 52.31 149.06 52.19 149.48 52.08 149.94 52 150.44 51.98 150.77 51.98 150.77 51.98 151.35 48.63 150.99 48.66 150.64 48.7 150.31 48.77 150 48.86 149.72 48.96 149.44 49.09 149.18 49.23 148.94 49.39 148.7 49.57 148.48 49.75 148.27 49.96 148.06 50.17 147.87 50.39 147.67 50.64 147.48 50.87 147.3 51.13 147.69 48.78 144.03 48.78 141.6 62.7 141.6 62.7"/><polygon class="cls-5" points="141.6 62.7 145.27 62.7 145.27 62.7 146.58 55.3 146.58 55.3 146.63 55.02 146.71 54.73 146.79 54.45 146.9 54.16 147.02 53.88 147.18 53.6 147.35 53.34 147.56 53.09 147.79 52.87 148.05 52.67 148.35 52.47 148.69 52.31 149.06 52.19 149.48 52.08 149.94 52 150.44 51.98 150.77 51.98 150.77 51.98 151.35 48.63 151.35 48.63 150.99 48.66 150.64 48.7 150.31 48.77 150 48.86 149.72 48.96 149.44 49.09 149.18 49.23 148.94 49.39 148.7 49.57 148.48 49.75 148.27 49.96 148.06 50.17 147.87 50.39 147.67 50.64 147.48 50.87 147.3 51.13 147.69 48.78 144.03 48.78 141.6 62.7 141.6 62.7"/><polygon class="cls-4" points="107.17 62.7 110.91 62.7 112.15 55.3 112.2 55.02 112.27 54.75 112.33 54.47 112.43 54.21 112.53 53.95 112.66 53.71 112.82 53.47 113 53.25 113.21 53.06 113.44 52.86 113.73 52.7 114.04 52.56 114.4 52.45 114.81 52.34 115.25 52.28 115.75 52.24 115.79 52.24 115.84 52.25 115.91 52.26 115.98 52.26 116.04 52.28 116.09 52.29 116.13 52.3 116.14 52.3 116.16 52.25 116.2 52.09 116.25 51.86 116.31 51.57 116.4 51.24 116.5 50.87 116.61 50.51 116.73 50.14 116.83 49.9 116.96 49.65 117.09 49.4 117.22 49.18 117.34 48.99 117.43 48.83 117.5 48.74 117.52 48.7 117.51 48.7 117.46 48.69 117.39 48.67 117.3 48.66 117.21 48.66 117.11 48.65 117.02 48.63 116.92 48.63 116.52 48.66 116.16 48.7 115.82 48.77 115.51 48.84 115.21 48.95 114.94 49.08 114.69 49.21 114.45 49.36 114.23 49.53 114.03 49.73 113.83 49.92 113.64 50.14 113.44 50.36 113.26 50.61 113.06 50.87 112.87 51.13 113.34 48.78 109.61 48.78 107.17 62.7 107.17 62.7"/><polygon class="cls-5" points="107.17 62.7 110.91 62.7 112.15 55.3 112.15 55.3 112.2 55.02 112.27 54.75 112.33 54.47 112.43 54.21 112.53 53.95 112.66 53.71 112.82 53.47 113 53.25 113.21 53.06 113.44 52.86 113.73 52.7 114.04 52.56 114.4 52.45 114.81 52.34 115.25 52.28 115.75 52.24 115.79 52.24 115.84 52.25 115.91 52.26 115.98 52.26 116.04 52.28 116.09 52.29 116.13 52.3 116.14 52.3 116.14 52.3 116.16 52.25 116.2 52.09 116.25 51.86 116.31 51.57 116.4 51.24 116.5 50.87 116.61 50.51 116.73 50.14 116.73 50.14 116.83 49.9 116.96 49.65 117.09 49.4 117.22 49.18 117.34 48.99 117.43 48.83 117.5 48.74 117.52 48.7 117.51 48.7 117.46 48.69 117.39 48.67 117.3 48.66 117.21 48.66 117.11 48.65 117.02 48.63 116.92 48.63 116.92 48.63 116.52 48.66 116.16 48.7 115.82 48.77 115.51 48.84 115.21 48.95 114.94 49.08 114.69 49.21 114.45 49.36 114.23 49.53 114.03 49.73 113.83 49.92 113.64 50.14 113.44 50.36 113.26 50.61 113.06 50.87 112.87 51.13 113.34 48.78 109.61 48.78 107.17 62.7 107.17 62.7"/><polygon class="cls-2" points="164.29 76.38 164.29 76.33 164.4 75.99 164.58 75.69 164.8 75.43 165.07 75.22 165.38 75.07 165.72 74.98 166.09 74.94 166.45 74.98 166.79 75.07 167.1 75.22 167.37 75.43 167.59 75.69 167.78 75.99 167.88 76.33 167.88 76.38 167.5 76.38 167.42 76.11 167.29 75.86 167.13 75.64 166.92 75.46 166.67 75.31 166.38 75.22 166.09 75.2 165.79 75.22 165.5 75.31 165.25 75.46 165.04 75.64 164.88 75.86 164.75 76.11 164.67 76.38 164.29 76.38 164.29 76.38"/><polygon class="cls-2" points="165.44 76.38 165.44 75.93 166.31 75.93 166.45 75.95 166.55 75.98 166.64 76.03 166.71 76.09 166.76 76.17 166.79 76.27 166.8 76.38 166.54 76.38 166.54 76.32 166.53 76.25 166.5 76.2 166.46 76.17 166.42 76.15 166.36 76.13 166.29 76.12 165.76 76.12 165.76 76.38 165.44 76.38 165.44 76.38"/><polygon class="cls-2" points="164.25 76.67 164.29 76.38 164.67 76.38 164.67 76.39 164.64 76.67 164.25 76.67 164.25 76.67"/><polygon class="cls-2" points="165.44 76.67 165.44 76.38 165.76 76.38 165.76 76.64 166.09 76.64 166.2 76.61 166.29 76.6 166.37 76.58 166.44 76.55 166.49 76.51 166.51 76.47 166.54 76.41 166.54 76.38 166.8 76.38 166.8 76.38 166.79 76.47 166.76 76.55 166.72 76.61 166.67 76.67 165.44 76.67 165.44 76.67"/><polygon class="cls-2" points="167.53 76.67 167.5 76.39 167.5 76.38 167.88 76.38 167.92 76.67 167.53 76.67 167.53 76.67"/><polygon class="cls-2" points="164.25 76.67 164.25 76.71 164.29 77.08 164.4 77.44 164.58 77.75 164.8 78.02 165.07 78.24 165.38 78.4 165.72 78.5 166.09 78.54 166.45 78.5 166.79 78.4 167.1 78.24 167.37 78.02 167.59 77.75 167.78 77.44 167.88 77.08 167.92 76.71 167.92 76.67 167.53 76.67 167.53 76.71 167.5 77.02 167.42 77.31 167.29 77.55 167.13 77.77 166.92 77.95 166.67 78.1 166.38 78.19 166.09 78.21 165.79 78.19 165.5 78.1 165.25 77.95 165.04 77.77 164.88 77.55 164.75 77.31 164.67 77.02 164.64 76.71 164.64 76.67 164.25 76.67 164.25 76.67"/><polygon class="cls-2" points="165.44 76.67 165.44 77.42 165.76 77.42 165.76 76.77 166.09 76.77 166.47 77.42 166.74 77.42 166.34 76.77 166.44 76.77 166.53 76.75 166.6 76.72 166.67 76.67 165.44 76.67 165.44 76.67"/></g></g></svg>