<svg xmlns="http://www.w3.org/2000/svg" viewBox="0 0 16.5 16.5"><defs><style>.cls-1{fill:none;stroke:#9D9D9D;stroke-linecap:round;stroke-linejoin:round;stroke-width:1.5px;}</style></defs><title>Asset 3</title><g id="Layer_2" data-name="Layer 2"><g id="Layer_1-2" data-name="Layer 1"><path class="cls-1" d="M15.75,12v2.26a1.51,1.51,0,0,1-1.64,1.51A15,15,0,0,1,7.6,13.43,14.69,14.69,0,0,1,3.07,8.92,14.88,14.88,0,0,1,.76,2.39,1.51,1.51,0,0,1,2.26.75H4.52A1.51,1.51,0,0,1,6,2a9.65,9.65,0,0,0,.53,2.12,1.5,1.5,0,0,1-.34,1.59l-1,1a12.06,12.06,0,0,0,4.53,4.52l1-1a1.51,1.51,0,0,1,1.59-.34,9.7,9.7,0,0,0,2.12.53A1.51,1.51,0,0,1,15.75,12Z"/></g></g></svg>