<svg xmlns="http://www.w3.org/2000/svg" viewBox="0 0 14.2 18.89"><defs><style>.cls-1{fill:#fff;}</style></defs><title>Asset 4</title><g id="Layer_2" data-name="Layer 2"><g id="Layer_1-2" data-name="Layer 1"><path class="cls-1" d="M4.51,16.13a1.38,1.38,0,1,1-.53.1A1.36,1.36,0,0,1,4.51,16.13Z"/><path class="cls-1" d="M10.59,16.13a1.38,1.38,0,1,1-.53.1A1.36,1.36,0,0,1,10.59,16.13Z"/><path class="cls-1" d="M11.81,14.76H5.37a3.26,3.26,0,0,1-3.16-3L1.37,4a.53.53,0,0,0-.51-.49H.72A.74.74,0,0,1,0,2.79.74.74,0,0,1,.72,2H.85A2,2,0,0,1,2.79,3.87L2.8,4H6.88a.76.76,0,0,1,0,1.52H3l.56,5.08H11A1.79,1.79,0,0,0,12.7,9.06l.08-.47a.73.73,0,0,1,.7-.63h.13a.76.76,0,0,1,.58.88l-.08.47A3.24,3.24,0,0,1,11,12.13H3.77a1.75,1.75,0,0,0,1.6,1.12h6.43a.76.76,0,0,1,0,1.52Z"/><polygon class="cls-1" points="12.17 1.96 12.17 0 11.29 0 11.29 1.96 9.41 1.96 9.41 2.81 11.29 2.81 11.29 4.79 12.17 4.79 12.17 2.81 14.05 2.81 14.05 1.96 12.17 1.96"/></g></g></svg>