<svg xmlns="http://www.w3.org/2000/svg" viewBox="0 0 18.02 21.47"><defs><style>.cls-1{isolation:isolate;}.cls-2{fill:#9D9D9D}</style></defs><title>Asset 7</title><g id="Layer_2" data-name="Layer 2"><g id="Layer_1-2" data-name="Layer 1"><g class="cls-1"><path class="cls-2" d="M5.64,18.13a1.67,1.67,0,1,1-.64.13A1.65,1.65,0,0,1,5.64,18.13Z"/><path class="cls-2" d="M13.53,18.13a1.67,1.67,0,1,1-.64.13A1.65,1.65,0,0,1,13.53,18.13Z"/><path class="cls-2" d="M.79,0A.82.82,0,0,0,0,.85a.82.82,0,0,0,.79.85H1a.81.81,0,0,1,.79.75l1.09,9.89a4.06,4.06,0,0,0,3.94,3.73h8.28a.85.85,0,0,0,0-1.69H6.79a2.39,2.39,0,0,1-2.24-1.69H14A4,4,0,0,0,17.9,9.2l.1-.6a.84.84,0,0,0-.64-1h-.14a.81.81,0,0,0-.78.7l-.1.6A2.43,2.43,0,0,1,14,11H4.3L3.55,4.23H8.72a.82.82,0,0,0,.79-.85.82.82,0,0,0-.79-.85H3.36l0-.3A2.44,2.44,0,0,0,1,0H.79"/></g></g></g></svg>