
<svg xmlns="http://www.w3.org/2000/svg" viewBox="0 0 211.88 106.05"><defs><style>.cls-1{fill:#fff;stroke:#fff;stroke-miterlimit:22.93;stroke-width:0.22px;}.cls-2{fill:#005296;}.cls-2,.cls-3{fill-rule:evenodd;}.cls-3{fill:#faa41a;}</style></defs><title>Asset 2</title><g id="Layer_2" data-name="Layer 2"><g id="Layer_1-2" data-name="Layer 1"><rect class="cls-1" x="0.11" y="0.11" width="211.66" height="105.83" rx="10.58" ry="10.58"/><polygon class="cls-2" points="86.58 72.53 93.22 33.61 103.83 33.61 97.19 72.53 86.58 72.53"/><path class="cls-2" d="M135.66,34.57a27.4,27.4,0,0,0-9.51-1.63c-10.48,0-17.87,5.28-17.93,12.84-.06,5.59,5.27,8.71,9.29,10.57s5.52,3.12,5.5,4.83c0,2.61-3.3,3.8-6.35,3.8a22.24,22.24,0,0,1-10-2l-1.37-.62L103.83,71a33.59,33.59,0,0,0,11.82,2.08c11.15,0,18.39-5.22,18.47-13.3,0-4.43-2.79-7.8-8.91-10.57-3.71-1.8-6-3-6-4.82,0-1.62,1.92-3.35,6.07-3.35a19.56,19.56,0,0,1,7.94,1.49l1,.45Z"/><path class="cls-2" d="M162.86,33.65h-8.2c-2.54,0-4.44.69-5.55,3.23L133.36,72.54H144.5s1.82-4.8,2.23-5.85l13.59,0c.32,1.36,1.29,5.83,1.29,5.83h9.84l-8.59-38.89ZM149.78,58.73c.88-2.24,4.23-10.88,4.23-10.88s.87-2.25,1.41-3.71l.72,3.36,2.46,11.24h-8.81Z"/><path class="cls-2" d="M77.69,33.64,67.3,60.18,66.2,54.79c-1.93-6.22-8-13-14.69-16.33l9.5,34H72.22l16.7-38.84Z"/><path class="cls-3" d="M57.67,33.62H40.56l-.14.81c13.31,3.22,22.11,11,25.77,20.36L62.48,36.9C61.83,34.44,60,33.7,57.67,33.62Z"/></g></g></svg>